<mxfile host="Electron" agent="Mozilla/5.0 (Windows NT 10.0; Win64; x64) AppleWebKit/537.36 (KHTML, like Gecko) draw.io/26.0.9 Chrome/128.0.6613.186 Electron/32.2.5 Safari/537.36" version="26.0.9">
  <diagram id="C5RBs43oDa-KdzZeNtuy" name="Page-1">
    <mxGraphModel dx="2074" dy="1196" grid="1" gridSize="10" guides="1" tooltips="1" connect="1" arrows="1" fold="1" page="1" pageScale="1" pageWidth="827" pageHeight="1169" math="0" shadow="0">
      <root>
        <mxCell id="WIyWlLk6GJQsqaUBKTNV-0" />
        <mxCell id="WIyWlLk6GJQsqaUBKTNV-1" parent="WIyWlLk6GJQsqaUBKTNV-0" />
        <mxCell id="DlgPZ38A4DJiydcNwe8a-0" value="Tee selgeks mis kujuga on kasutajata tuba&amp;nbsp;&lt;div&gt;ring/ristkülik/komnurk&lt;/div&gt;&lt;div&gt;olenevalt toa kujust, teosta tehe&lt;/div&gt;&lt;div&gt;kui ring on p x r x 2&lt;/div&gt;&lt;div&gt;vaja kasutrajalt küsida toa raadiust või läbimõõtu&lt;/div&gt;&lt;div&gt;kui on ristkülik a*b&lt;/div&gt;&lt;div&gt;kui on kolmnurk&amp;nbsp; on vaja arvutada kõrgus (a v3) / 2&lt;/div&gt;&lt;div&gt;ning kõrguse abil pindala (a*h)/ 2&lt;/div&gt;&lt;div&gt;teosta arvutus, kuva vastu&lt;/div&gt;" style="text;html=1;align=center;verticalAlign=middle;resizable=0;points=[];autosize=1;strokeColor=none;fillColor=none;" vertex="1" parent="WIyWlLk6GJQsqaUBKTNV-1">
          <mxGeometry y="40" width="290" height="140" as="geometry" />
        </mxCell>
        <mxCell id="DlgPZ38A4DJiydcNwe8a-3" value="" style="edgeStyle=orthogonalEdgeStyle;rounded=0;orthogonalLoop=1;jettySize=auto;html=1;" edge="1" parent="WIyWlLk6GJQsqaUBKTNV-1" source="DlgPZ38A4DJiydcNwe8a-1" target="DlgPZ38A4DJiydcNwe8a-2">
          <mxGeometry relative="1" as="geometry" />
        </mxCell>
        <mxCell id="DlgPZ38A4DJiydcNwe8a-1" value="Algus" style="ellipse;whiteSpace=wrap;html=1;" vertex="1" parent="WIyWlLk6GJQsqaUBKTNV-1">
          <mxGeometry x="610" y="260" width="110" height="80" as="geometry" />
        </mxCell>
        <mxCell id="DlgPZ38A4DJiydcNwe8a-5" value="" style="edgeStyle=orthogonalEdgeStyle;rounded=0;orthogonalLoop=1;jettySize=auto;html=1;" edge="1" parent="WIyWlLk6GJQsqaUBKTNV-1" source="DlgPZ38A4DJiydcNwe8a-2" target="DlgPZ38A4DJiydcNwe8a-4">
          <mxGeometry relative="1" as="geometry" />
        </mxCell>
        <mxCell id="DlgPZ38A4DJiydcNwe8a-2" value="Kuva kasutajatele tekst &quot;Kas sinu tuba&lt;div&gt;on kolmnurga, ringi või&lt;/div&gt;&lt;div&gt;ristküliku kujuline?&quot;&lt;/div&gt;" style="rhombus;whiteSpace=wrap;html=1;" vertex="1" parent="WIyWlLk6GJQsqaUBKTNV-1">
          <mxGeometry x="511.25" y="490" width="307.5" height="120" as="geometry" />
        </mxCell>
        <mxCell id="DlgPZ38A4DJiydcNwe8a-7" value="" style="edgeStyle=orthogonalEdgeStyle;rounded=0;orthogonalLoop=1;jettySize=auto;html=1;" edge="1" parent="WIyWlLk6GJQsqaUBKTNV-1" source="DlgPZ38A4DJiydcNwe8a-4" target="DlgPZ38A4DJiydcNwe8a-6">
          <mxGeometry relative="1" as="geometry" />
        </mxCell>
        <mxCell id="DlgPZ38A4DJiydcNwe8a-4" value="Ootan kuni kasutaja sisetab vastuseks sõna" style="ellipse;whiteSpace=wrap;html=1;" vertex="1" parent="WIyWlLk6GJQsqaUBKTNV-1">
          <mxGeometry x="592.5" y="700" width="145" height="100" as="geometry" />
        </mxCell>
        <mxCell id="DlgPZ38A4DJiydcNwe8a-8" style="edgeStyle=orthogonalEdgeStyle;rounded=0;orthogonalLoop=1;jettySize=auto;html=1;exitX=1;exitY=0.5;exitDx=0;exitDy=0;entryX=1;entryY=0.5;entryDx=0;entryDy=0;" edge="1" parent="WIyWlLk6GJQsqaUBKTNV-1" source="DlgPZ38A4DJiydcNwe8a-6" target="DlgPZ38A4DJiydcNwe8a-4">
          <mxGeometry relative="1" as="geometry" />
        </mxCell>
        <mxCell id="DlgPZ38A4DJiydcNwe8a-9" value="EI" style="edgeLabel;html=1;align=center;verticalAlign=middle;resizable=0;points=[];" vertex="1" connectable="0" parent="DlgPZ38A4DJiydcNwe8a-8">
          <mxGeometry x="-0.0691" relative="1" as="geometry">
            <mxPoint x="1" as="offset" />
          </mxGeometry>
        </mxCell>
        <mxCell id="DlgPZ38A4DJiydcNwe8a-6" value="Kas kasutaja on midagi&amp;nbsp;&lt;div&gt;sisetanud?&lt;/div&gt;" style="rhombus;whiteSpace=wrap;html=1;" vertex="1" parent="WIyWlLk6GJQsqaUBKTNV-1">
          <mxGeometry x="583.75" y="930" width="162.5" height="120" as="geometry" />
        </mxCell>
        <mxCell id="DlgPZ38A4DJiydcNwe8a-15" style="edgeStyle=orthogonalEdgeStyle;rounded=0;orthogonalLoop=1;jettySize=auto;html=1;exitX=0.5;exitY=0;exitDx=0;exitDy=0;entryX=0.5;entryY=1;entryDx=0;entryDy=0;" edge="1" parent="WIyWlLk6GJQsqaUBKTNV-1" source="DlgPZ38A4DJiydcNwe8a-12" target="DlgPZ38A4DJiydcNwe8a-6">
          <mxGeometry relative="1" as="geometry" />
        </mxCell>
        <mxCell id="DlgPZ38A4DJiydcNwe8a-16" value="JAH" style="edgeLabel;html=1;align=center;verticalAlign=middle;resizable=0;points=[];" vertex="1" connectable="0" parent="DlgPZ38A4DJiydcNwe8a-15">
          <mxGeometry x="-0.0143" y="-1" relative="1" as="geometry">
            <mxPoint as="offset" />
          </mxGeometry>
        </mxCell>
        <mxCell id="DlgPZ38A4DJiydcNwe8a-20" value="" style="edgeStyle=orthogonalEdgeStyle;rounded=0;orthogonalLoop=1;jettySize=auto;html=1;" edge="1" parent="WIyWlLk6GJQsqaUBKTNV-1" source="DlgPZ38A4DJiydcNwe8a-12" target="DlgPZ38A4DJiydcNwe8a-19">
          <mxGeometry relative="1" as="geometry" />
        </mxCell>
        <mxCell id="DlgPZ38A4DJiydcNwe8a-24" value="EI" style="edgeLabel;html=1;align=center;verticalAlign=middle;resizable=0;points=[];" vertex="1" connectable="0" parent="DlgPZ38A4DJiydcNwe8a-20">
          <mxGeometry x="-0.059" relative="1" as="geometry">
            <mxPoint as="offset" />
          </mxGeometry>
        </mxCell>
        <mxCell id="DlgPZ38A4DJiydcNwe8a-30" value="" style="edgeStyle=orthogonalEdgeStyle;rounded=0;orthogonalLoop=1;jettySize=auto;html=1;" edge="1" parent="WIyWlLk6GJQsqaUBKTNV-1" source="DlgPZ38A4DJiydcNwe8a-12" target="DlgPZ38A4DJiydcNwe8a-29">
          <mxGeometry relative="1" as="geometry" />
        </mxCell>
        <mxCell id="DlgPZ38A4DJiydcNwe8a-12" value="Kas kasutaja sisetas sõna &quot;ring&quot;?" style="rhombus;whiteSpace=wrap;html=1;" vertex="1" parent="WIyWlLk6GJQsqaUBKTNV-1">
          <mxGeometry x="561.24" y="1110" width="211.25" height="141" as="geometry" />
        </mxCell>
        <mxCell id="DlgPZ38A4DJiydcNwe8a-22" value="" style="edgeStyle=orthogonalEdgeStyle;rounded=0;orthogonalLoop=1;jettySize=auto;html=1;" edge="1" parent="WIyWlLk6GJQsqaUBKTNV-1" source="DlgPZ38A4DJiydcNwe8a-19" target="DlgPZ38A4DJiydcNwe8a-21">
          <mxGeometry relative="1" as="geometry" />
        </mxCell>
        <mxCell id="DlgPZ38A4DJiydcNwe8a-23" value="EI" style="edgeLabel;html=1;align=center;verticalAlign=middle;resizable=0;points=[];" vertex="1" connectable="0" parent="DlgPZ38A4DJiydcNwe8a-22">
          <mxGeometry x="-0.1679" relative="1" as="geometry">
            <mxPoint as="offset" />
          </mxGeometry>
        </mxCell>
        <mxCell id="DlgPZ38A4DJiydcNwe8a-81" style="edgeStyle=orthogonalEdgeStyle;rounded=0;orthogonalLoop=1;jettySize=auto;html=1;exitX=1;exitY=0.5;exitDx=0;exitDy=0;entryX=0.5;entryY=0;entryDx=0;entryDy=0;endArrow=none;startFill=0;" edge="1" parent="WIyWlLk6GJQsqaUBKTNV-1" source="DlgPZ38A4DJiydcNwe8a-19" target="DlgPZ38A4DJiydcNwe8a-47">
          <mxGeometry relative="1" as="geometry" />
        </mxCell>
        <mxCell id="DlgPZ38A4DJiydcNwe8a-19" value="&lt;br&gt;&lt;span style=&quot;color: rgb(0, 0, 0); font-family: Helvetica; font-size: 12px; font-style: normal; font-variant-ligatures: normal; font-variant-caps: normal; font-weight: 400; letter-spacing: normal; orphans: 2; text-align: center; text-indent: 0px; text-transform: none; widows: 2; word-spacing: 0px; -webkit-text-stroke-width: 0px; white-space: normal; background-color: rgb(251, 251, 251); text-decoration-thickness: initial; text-decoration-style: initial; text-decoration-color: initial; float: none; display: inline !important;&quot;&gt;Kas kasutaja sisetas sõna &quot;ristkülik&quot;?&lt;/span&gt;&lt;div&gt;&lt;br/&gt;&lt;/div&gt;" style="rhombus;whiteSpace=wrap;html=1;" vertex="1" parent="WIyWlLk6GJQsqaUBKTNV-1">
          <mxGeometry x="570" y="1530" width="190" height="130" as="geometry" />
        </mxCell>
        <mxCell id="DlgPZ38A4DJiydcNwe8a-26" value="" style="edgeStyle=orthogonalEdgeStyle;rounded=0;orthogonalLoop=1;jettySize=auto;html=1;" edge="1" parent="WIyWlLk6GJQsqaUBKTNV-1" source="DlgPZ38A4DJiydcNwe8a-21" target="DlgPZ38A4DJiydcNwe8a-25">
          <mxGeometry relative="1" as="geometry" />
        </mxCell>
        <mxCell id="DlgPZ38A4DJiydcNwe8a-65" value="" style="edgeStyle=orthogonalEdgeStyle;rounded=0;orthogonalLoop=1;jettySize=auto;html=1;" edge="1" parent="WIyWlLk6GJQsqaUBKTNV-1" source="DlgPZ38A4DJiydcNwe8a-21" target="DlgPZ38A4DJiydcNwe8a-64">
          <mxGeometry relative="1" as="geometry" />
        </mxCell>
        <mxCell id="DlgPZ38A4DJiydcNwe8a-21" value="Kas kasutaja sisetas sõna &quot;kolmnurg&quot;?" style="rhombus;whiteSpace=wrap;html=1;" vertex="1" parent="WIyWlLk6GJQsqaUBKTNV-1">
          <mxGeometry x="540" y="2923" width="186.25" height="155" as="geometry" />
        </mxCell>
        <mxCell id="DlgPZ38A4DJiydcNwe8a-28" style="edgeStyle=orthogonalEdgeStyle;rounded=0;orthogonalLoop=1;jettySize=auto;html=1;exitX=0.5;exitY=1;exitDx=0;exitDy=0;entryX=0.5;entryY=0;entryDx=0;entryDy=0;" edge="1" parent="WIyWlLk6GJQsqaUBKTNV-1" target="DlgPZ38A4DJiydcNwe8a-27">
          <mxGeometry relative="1" as="geometry">
            <mxPoint x="705" y="3477.5" as="sourcePoint" />
          </mxGeometry>
        </mxCell>
        <mxCell id="DlgPZ38A4DJiydcNwe8a-25" value="Programm kuvab&amp;nbsp;&lt;div&gt;&quot;Ei tunne kujundit, vabandame.&quot;&lt;/div&gt;" style="shape=parallelogram;perimeter=parallelogramPerimeter;whiteSpace=wrap;html=1;fixedSize=1;" vertex="1" parent="WIyWlLk6GJQsqaUBKTNV-1">
          <mxGeometry x="551.26" y="3333" width="165" height="87.5" as="geometry" />
        </mxCell>
        <mxCell id="DlgPZ38A4DJiydcNwe8a-27" value="Lõpp" style="ellipse;whiteSpace=wrap;html=1;" vertex="1" parent="WIyWlLk6GJQsqaUBKTNV-1">
          <mxGeometry x="630" y="3573" width="120" height="80" as="geometry" />
        </mxCell>
        <mxCell id="DlgPZ38A4DJiydcNwe8a-32" value="" style="edgeStyle=orthogonalEdgeStyle;rounded=0;orthogonalLoop=1;jettySize=auto;html=1;" edge="1" parent="WIyWlLk6GJQsqaUBKTNV-1" source="DlgPZ38A4DJiydcNwe8a-29" target="DlgPZ38A4DJiydcNwe8a-31">
          <mxGeometry relative="1" as="geometry" />
        </mxCell>
        <mxCell id="DlgPZ38A4DJiydcNwe8a-29" value="Kuva kasutajate tekst&amp;nbsp;&lt;div&gt;&quot;Kas sa tead oma toa läbimõõtu?&quot;&lt;/div&gt;" style="shape=parallelogram;perimeter=parallelogramPerimeter;whiteSpace=wrap;html=1;fixedSize=1;" vertex="1" parent="WIyWlLk6GJQsqaUBKTNV-1">
          <mxGeometry x="992.1800000000003" y="990" width="203.76" height="89.5" as="geometry" />
        </mxCell>
        <mxCell id="DlgPZ38A4DJiydcNwe8a-31" value="Oota kuni kasutaja&lt;div&gt;sisetab muutajasse diameeter double tüüpi arvu&lt;/div&gt;" style="rounded=1;whiteSpace=wrap;html=1;" vertex="1" parent="WIyWlLk6GJQsqaUBKTNV-1">
          <mxGeometry x="1139.6999999999998" y="1190" width="167.8" height="100" as="geometry" />
        </mxCell>
        <mxCell id="DlgPZ38A4DJiydcNwe8a-36" value="" style="edgeStyle=orthogonalEdgeStyle;rounded=0;orthogonalLoop=1;jettySize=auto;html=1;" edge="1" parent="WIyWlLk6GJQsqaUBKTNV-1" source="DlgPZ38A4DJiydcNwe8a-35" target="DlgPZ38A4DJiydcNwe8a-31">
          <mxGeometry relative="1" as="geometry" />
        </mxCell>
        <mxCell id="DlgPZ38A4DJiydcNwe8a-42" value="" style="edgeStyle=orthogonalEdgeStyle;rounded=0;orthogonalLoop=1;jettySize=auto;html=1;" edge="1" parent="WIyWlLk6GJQsqaUBKTNV-1" source="DlgPZ38A4DJiydcNwe8a-35" target="DlgPZ38A4DJiydcNwe8a-41">
          <mxGeometry relative="1" as="geometry" />
        </mxCell>
        <mxCell id="DlgPZ38A4DJiydcNwe8a-43" value="JAH" style="edgeLabel;html=1;align=center;verticalAlign=middle;resizable=0;points=[];" vertex="1" connectable="0" parent="DlgPZ38A4DJiydcNwe8a-42">
          <mxGeometry x="-0.0807" y="1" relative="1" as="geometry">
            <mxPoint as="offset" />
          </mxGeometry>
        </mxCell>
        <mxCell id="DlgPZ38A4DJiydcNwe8a-35" value="Kas kasutaja teostas sisetuse?" style="rhombus;whiteSpace=wrap;html=1;" vertex="1" parent="WIyWlLk6GJQsqaUBKTNV-1">
          <mxGeometry x="1019.06" y="1420" width="150" height="100" as="geometry" />
        </mxCell>
        <mxCell id="DlgPZ38A4DJiydcNwe8a-37" style="edgeStyle=orthogonalEdgeStyle;rounded=0;orthogonalLoop=1;jettySize=auto;html=1;exitX=1;exitY=0.5;exitDx=0;exitDy=0;entryX=0.994;entryY=0.08;entryDx=0;entryDy=0;entryPerimeter=0;" edge="1" parent="WIyWlLk6GJQsqaUBKTNV-1" source="DlgPZ38A4DJiydcNwe8a-35" target="DlgPZ38A4DJiydcNwe8a-31">
          <mxGeometry relative="1" as="geometry" />
        </mxCell>
        <mxCell id="DlgPZ38A4DJiydcNwe8a-38" value="EI" style="edgeLabel;html=1;align=center;verticalAlign=middle;resizable=0;points=[];" vertex="1" connectable="0" parent="DlgPZ38A4DJiydcNwe8a-37">
          <mxGeometry x="-0.0307" y="-5" relative="1" as="geometry">
            <mxPoint x="-8" y="-12" as="offset" />
          </mxGeometry>
        </mxCell>
        <mxCell id="DlgPZ38A4DJiydcNwe8a-41" value="Muutujasse tulemus, arvuta välja toa pindala kasutades valemit&lt;div&gt;(Math.PI* diaameeter/2))/2&lt;/div&gt;" style="shape=parallelogram;perimeter=parallelogramPerimeter;whiteSpace=wrap;html=1;fixedSize=1;" vertex="1" parent="WIyWlLk6GJQsqaUBKTNV-1">
          <mxGeometry x="1530" y="1560" width="248.13" height="116" as="geometry" />
        </mxCell>
        <mxCell id="DlgPZ38A4DJiydcNwe8a-46" style="edgeStyle=orthogonalEdgeStyle;rounded=0;orthogonalLoop=1;jettySize=auto;html=1;exitX=1;exitY=0.25;exitDx=0;exitDy=0;entryX=1;entryY=0.5;entryDx=0;entryDy=0;" edge="1" parent="WIyWlLk6GJQsqaUBKTNV-1" source="DlgPZ38A4DJiydcNwe8a-44" target="DlgPZ38A4DJiydcNwe8a-27">
          <mxGeometry relative="1" as="geometry">
            <Array as="points">
              <mxPoint x="1167" y="3483" />
              <mxPoint x="1167" y="3610" />
              <mxPoint x="845" y="3610" />
              <mxPoint x="845" y="3613" />
            </Array>
          </mxGeometry>
        </mxCell>
        <mxCell id="DlgPZ38A4DJiydcNwe8a-44" value="Kuva kasutajale muutaja &quot;tulemus&quot; sisu välja,koos tekstiga.Sinu toa pindala on&quot;" style="shape=parallelogram;perimeter=parallelogramPerimeter;whiteSpace=wrap;html=1;fixedSize=1;" vertex="1" parent="WIyWlLk6GJQsqaUBKTNV-1">
          <mxGeometry x="1664.76" y="3460" width="257.97" height="90" as="geometry" />
        </mxCell>
        <mxCell id="DlgPZ38A4DJiydcNwe8a-86" value="" style="edgeStyle=orthogonalEdgeStyle;rounded=0;orthogonalLoop=1;jettySize=auto;html=1;" edge="1" parent="WIyWlLk6GJQsqaUBKTNV-1" source="DlgPZ38A4DJiydcNwe8a-47" target="DlgPZ38A4DJiydcNwe8a-85">
          <mxGeometry relative="1" as="geometry" />
        </mxCell>
        <mxCell id="DlgPZ38A4DJiydcNwe8a-47" value="&lt;div&gt;Kuva kasutaja teksti&lt;/div&gt;&lt;div&gt;&quot;Kas sa tead oma toa pikkust ja laiust?&quot;&lt;/div&gt;" style="shape=parallelogram;perimeter=parallelogramPerimeter;whiteSpace=wrap;html=1;fixedSize=1;" vertex="1" parent="WIyWlLk6GJQsqaUBKTNV-1">
          <mxGeometry x="860" y="1770" width="205" height="85" as="geometry" />
        </mxCell>
        <mxCell id="DlgPZ38A4DJiydcNwe8a-87" value="" style="edgeStyle=orthogonalEdgeStyle;rounded=0;orthogonalLoop=1;jettySize=auto;html=1;" edge="1" parent="WIyWlLk6GJQsqaUBKTNV-1" source="DlgPZ38A4DJiydcNwe8a-55" target="DlgPZ38A4DJiydcNwe8a-85">
          <mxGeometry relative="1" as="geometry" />
        </mxCell>
        <mxCell id="DlgPZ38A4DJiydcNwe8a-88" style="edgeStyle=orthogonalEdgeStyle;rounded=0;orthogonalLoop=1;jettySize=auto;html=1;exitX=1;exitY=0.5;exitDx=0;exitDy=0;entryX=1;entryY=0;entryDx=0;entryDy=0;" edge="1" parent="WIyWlLk6GJQsqaUBKTNV-1" source="DlgPZ38A4DJiydcNwe8a-55" target="DlgPZ38A4DJiydcNwe8a-47">
          <mxGeometry relative="1" as="geometry" />
        </mxCell>
        <mxCell id="DlgPZ38A4DJiydcNwe8a-89" value="EI" style="edgeLabel;html=1;align=center;verticalAlign=middle;resizable=0;points=[];" vertex="1" connectable="0" parent="DlgPZ38A4DJiydcNwe8a-88">
          <mxGeometry x="-0.5559" y="-2" relative="1" as="geometry">
            <mxPoint as="offset" />
          </mxGeometry>
        </mxCell>
        <mxCell id="DlgPZ38A4DJiydcNwe8a-91" value="" style="edgeStyle=orthogonalEdgeStyle;rounded=0;orthogonalLoop=1;jettySize=auto;html=1;" edge="1" parent="WIyWlLk6GJQsqaUBKTNV-1" source="DlgPZ38A4DJiydcNwe8a-55" target="DlgPZ38A4DJiydcNwe8a-90">
          <mxGeometry relative="1" as="geometry" />
        </mxCell>
        <mxCell id="DlgPZ38A4DJiydcNwe8a-55" value="&#xa;&lt;span style=&quot;color: rgb(0, 0, 0); font-family: Helvetica; font-size: 12px; font-style: normal; font-variant-ligatures: normal; font-variant-caps: normal; font-weight: 400; letter-spacing: normal; orphans: 2; text-align: center; text-indent: 0px; text-transform: none; widows: 2; word-spacing: 0px; -webkit-text-stroke-width: 0px; white-space: normal; background-color: rgb(251, 251, 251); text-decoration-thickness: initial; text-decoration-style: initial; text-decoration-color: initial; display: inline !important; float: none;&quot;&gt;Kas kasutaja teostas sisetuse?&lt;/span&gt;&#xa;&#xa;" style="rhombus;whiteSpace=wrap;html=1;" vertex="1" parent="WIyWlLk6GJQsqaUBKTNV-1">
          <mxGeometry x="1169.06" y="1993.75" width="227.5" height="92.5" as="geometry" />
        </mxCell>
        <mxCell id="DlgPZ38A4DJiydcNwe8a-63" style="edgeStyle=orthogonalEdgeStyle;rounded=0;orthogonalLoop=1;jettySize=auto;html=1;exitX=0.5;exitY=1;exitDx=0;exitDy=0;entryX=0.5;entryY=0;entryDx=0;entryDy=0;endArrow=none;startFill=0;" edge="1" parent="WIyWlLk6GJQsqaUBKTNV-1" source="DlgPZ38A4DJiydcNwe8a-60" target="DlgPZ38A4DJiydcNwe8a-44">
          <mxGeometry relative="1" as="geometry" />
        </mxCell>
        <mxCell id="DlgPZ38A4DJiydcNwe8a-60" value="Tulemusmuutujas arvutage ruumi pindala valemi pikkuse ja laiuse abil" style="shape=parallelogram;perimeter=parallelogramPerimeter;whiteSpace=wrap;html=1;fixedSize=1;" vertex="1" parent="WIyWlLk6GJQsqaUBKTNV-1">
          <mxGeometry x="1735.63" y="2157.5" width="216.25" height="90" as="geometry" />
        </mxCell>
        <mxCell id="DlgPZ38A4DJiydcNwe8a-93" value="" style="edgeStyle=orthogonalEdgeStyle;rounded=0;orthogonalLoop=1;jettySize=auto;html=1;" edge="1" parent="WIyWlLk6GJQsqaUBKTNV-1" source="DlgPZ38A4DJiydcNwe8a-64" target="DlgPZ38A4DJiydcNwe8a-92">
          <mxGeometry relative="1" as="geometry" />
        </mxCell>
        <mxCell id="DlgPZ38A4DJiydcNwe8a-64" value="&lt;div&gt;Kuva kasutaja teksti&lt;/div&gt;&lt;div&gt;&quot;Kas sa tead oma toa küljepikkust?&quot;&lt;/div&gt;" style="shape=parallelogram;perimeter=parallelogramPerimeter;whiteSpace=wrap;html=1;fixedSize=1;" vertex="1" parent="WIyWlLk6GJQsqaUBKTNV-1">
          <mxGeometry x="842.99" y="2959.25" width="199.39" height="82.5" as="geometry" />
        </mxCell>
        <mxCell id="DlgPZ38A4DJiydcNwe8a-77" value="" style="edgeStyle=orthogonalEdgeStyle;rounded=0;orthogonalLoop=1;jettySize=auto;html=1;" edge="1" parent="WIyWlLk6GJQsqaUBKTNV-1" target="DlgPZ38A4DJiydcNwe8a-76">
          <mxGeometry relative="1" as="geometry">
            <mxPoint x="1422.1" y="3215.4797734627828" as="sourcePoint" />
          </mxGeometry>
        </mxCell>
        <mxCell id="DlgPZ38A4DJiydcNwe8a-78" style="edgeStyle=orthogonalEdgeStyle;rounded=0;orthogonalLoop=1;jettySize=auto;html=1;exitX=1;exitY=0.5;exitDx=0;exitDy=0;entryX=0.5;entryY=0;entryDx=0;entryDy=0;endArrow=none;startFill=0;" edge="1" parent="WIyWlLk6GJQsqaUBKTNV-1" source="DlgPZ38A4DJiydcNwe8a-76" target="DlgPZ38A4DJiydcNwe8a-44">
          <mxGeometry relative="1" as="geometry" />
        </mxCell>
        <mxCell id="DlgPZ38A4DJiydcNwe8a-76" value="Saadud muutujas arvutage ruumi pindala pikkuse ja kõrguse abil" style="shape=parallelogram;perimeter=parallelogramPerimeter;whiteSpace=wrap;html=1;fixedSize=1;" vertex="1" parent="WIyWlLk6GJQsqaUBKTNV-1">
          <mxGeometry x="1349.56" y="3351.13" width="145.02" height="69.37" as="geometry" />
        </mxCell>
        <mxCell id="DlgPZ38A4DJiydcNwe8a-79" style="edgeStyle=orthogonalEdgeStyle;rounded=0;orthogonalLoop=1;jettySize=auto;html=1;exitX=1;exitY=0.5;exitDx=0;exitDy=0;entryX=0.97;entryY=0.589;entryDx=0;entryDy=0;entryPerimeter=0;endArrow=none;startFill=0;" edge="1" parent="WIyWlLk6GJQsqaUBKTNV-1" source="DlgPZ38A4DJiydcNwe8a-41" target="DlgPZ38A4DJiydcNwe8a-44">
          <mxGeometry relative="1" as="geometry">
            <Array as="points">
              <mxPoint x="2258" y="2800" />
              <mxPoint x="1865" y="2800" />
            </Array>
          </mxGeometry>
        </mxCell>
        <mxCell id="DlgPZ38A4DJiydcNwe8a-85" value="Oota kuni kasutaja sisestab muutujasse&amp;nbsp;&lt;div&gt;&quot;a-pikkus&quot;&lt;/div&gt;&lt;div&gt;double tüüpi arvu&lt;br&gt;&lt;/div&gt;&lt;div&gt;&lt;br&gt;&lt;/div&gt;" style="whiteSpace=wrap;html=1;" vertex="1" parent="WIyWlLk6GJQsqaUBKTNV-1">
          <mxGeometry x="887.5" y="1990" width="150" height="100" as="geometry" />
        </mxCell>
        <mxCell id="DlgPZ38A4DJiydcNwe8a-90" value="Kuva kasutajale tekst&lt;div&gt;&quot;Siseta oma toa&amp;nbsp;&lt;/div&gt;" style="shape=parallelogram;perimeter=parallelogramPerimeter;whiteSpace=wrap;html=1;fixedSize=1;" vertex="1" parent="WIyWlLk6GJQsqaUBKTNV-1">
          <mxGeometry x="1222.81" y="2180" width="120" height="60" as="geometry" />
        </mxCell>
        <mxCell id="DlgPZ38A4DJiydcNwe8a-95" value="" style="edgeStyle=orthogonalEdgeStyle;rounded=0;orthogonalLoop=1;jettySize=auto;html=1;" edge="1" parent="WIyWlLk6GJQsqaUBKTNV-1" source="DlgPZ38A4DJiydcNwe8a-92" target="DlgPZ38A4DJiydcNwe8a-94">
          <mxGeometry relative="1" as="geometry" />
        </mxCell>
        <mxCell id="DlgPZ38A4DJiydcNwe8a-92" value="Oota kuni kasutaja sisestab muutujasse&lt;div&gt;&quot;küljepikkus&quot; double-tüüpi arvu&lt;/div&gt;" style="whiteSpace=wrap;html=1;" vertex="1" parent="WIyWlLk6GJQsqaUBKTNV-1">
          <mxGeometry x="1162.075" y="2970.5" width="120" height="60" as="geometry" />
        </mxCell>
        <mxCell id="DlgPZ38A4DJiydcNwe8a-99" value="" style="edgeStyle=orthogonalEdgeStyle;rounded=0;orthogonalLoop=1;jettySize=auto;html=1;" edge="1" parent="WIyWlLk6GJQsqaUBKTNV-1" source="DlgPZ38A4DJiydcNwe8a-94" target="DlgPZ38A4DJiydcNwe8a-98">
          <mxGeometry relative="1" as="geometry" />
        </mxCell>
        <mxCell id="DlgPZ38A4DJiydcNwe8a-94" value="&#xa;&lt;span style=&quot;color: rgb(0, 0, 0); font-family: Helvetica; font-size: 12px; font-style: normal; font-variant-ligatures: normal; font-variant-caps: normal; font-weight: 400; letter-spacing: normal; orphans: 2; text-align: center; text-indent: 0px; text-transform: none; widows: 2; word-spacing: 0px; -webkit-text-stroke-width: 0px; white-space: normal; background-color: rgb(251, 251, 251); text-decoration-thickness: initial; text-decoration-style: initial; text-decoration-color: initial; display: inline !important; float: none;&quot;&gt;Kas kasutaja teostas sisetuse?&lt;/span&gt;&#xa;&#xa;" style="rhombus;whiteSpace=wrap;html=1;" vertex="1" parent="WIyWlLk6GJQsqaUBKTNV-1">
          <mxGeometry x="1178.11" y="3120" width="87.92" height="99.5" as="geometry" />
        </mxCell>
        <mxCell id="DlgPZ38A4DJiydcNwe8a-96" style="edgeStyle=orthogonalEdgeStyle;rounded=0;orthogonalLoop=1;jettySize=auto;html=1;exitX=1;exitY=0.5;exitDx=0;exitDy=0;entryX=0.577;entryY=-0.003;entryDx=0;entryDy=0;entryPerimeter=0;" edge="1" parent="WIyWlLk6GJQsqaUBKTNV-1" source="DlgPZ38A4DJiydcNwe8a-94" target="DlgPZ38A4DJiydcNwe8a-64">
          <mxGeometry relative="1" as="geometry">
            <Array as="points">
              <mxPoint x="1360" y="3170" />
              <mxPoint x="1360" y="2939" />
              <mxPoint x="958" y="2939" />
            </Array>
          </mxGeometry>
        </mxCell>
        <mxCell id="DlgPZ38A4DJiydcNwe8a-97" value="EI" style="edgeLabel;html=1;align=center;verticalAlign=middle;resizable=0;points=[];" vertex="1" connectable="0" parent="DlgPZ38A4DJiydcNwe8a-96">
          <mxGeometry x="-0.4328" relative="1" as="geometry">
            <mxPoint as="offset" />
          </mxGeometry>
        </mxCell>
        <mxCell id="DlgPZ38A4DJiydcNwe8a-98" value="Arvuta muutujasse &quot;h kõrgus&quot; järgneva valemi abil kolmnurga kõrgus:&lt;div&gt;((Küljepikkus*Math.Sqrt(3))/2&lt;/div&gt;" style="shape=parallelogram;perimeter=parallelogramPerimeter;whiteSpace=wrap;html=1;fixedSize=1;" vertex="1" parent="WIyWlLk6GJQsqaUBKTNV-1">
          <mxGeometry x="902.5" y="3280" width="227.5" height="80" as="geometry" />
        </mxCell>
      </root>
    </mxGraphModel>
  </diagram>
</mxfile>
